<svg width="121" height="49" viewBox="0 0 121 49" fill="none" xmlns="http://www.w3.org/2000/svg">
<path d="M12.3582 8.23859V45.8192C12.3582 46.3669 12.8022 46.8109 13.3498 46.8109H35.3822" stroke="#2D86EB" stroke-width="3.96653"/>
<path d="M24.621 44.832H39.1595C40.2524 44.832 41.1382 45.7179 41.1382 46.8107V46.8107C41.1382 47.9035 40.2523 48.7894 39.1595 48.7894H24.621V44.832Z" fill="#2D86EB"/>
<path d="M17.6512 2.9787H30.4711C35.9478 2.9787 40.3875 7.41838 40.3875 12.895V29.6685C40.3875 35.1451 35.9478 39.5848 30.4711 39.5848H17.6512" stroke="#222222" stroke-width="3.96653"/>
<path d="M17.6137 8.23859H28.4165C32.1254 8.23859 35.132 11.2452 35.132 14.9541V27.8224C35.132 31.5313 32.1254 34.5379 28.4165 34.5379H17.6137V8.23859Z" fill="#222222"/>
<path d="M0.846176 2.97871C0.846176 1.8859 1.73207 1 2.82488 1H26.3728V4.95742H2.82488C1.73207 4.95742 0.846176 4.07152 0.846176 2.97871V2.97871Z" fill="#222222"/>
<path d="M63.408 21.7218C63.408 23.6766 63.1579 25.3359 62.6579 26.6997C62.1805 28.0635 61.51 29.1773 60.6462 30.0411C59.8052 30.8821 58.7937 31.4958 57.6117 31.8822C56.4525 32.2687 55.191 32.4619 53.8271 32.4619C52.4179 32.4619 50.9972 32.2914 49.5652 31.9504V11.4931C50.9972 11.1522 52.4179 10.9817 53.8271 10.9817C55.191 10.9817 56.4525 11.1749 57.6117 11.5613C58.7937 11.9477 59.8052 12.5728 60.6462 13.4366C61.51 14.3003 62.1805 15.4141 62.6579 16.7779C63.1579 18.1418 63.408 19.7897 63.408 21.7218ZM52.361 29.9388C52.9293 30.007 53.5089 30.0411 54.0999 30.0411C55.1228 30.0411 56.032 29.8933 56.8275 29.5978C57.6231 29.2796 58.2936 28.7909 58.8392 28.1317C59.3847 27.4498 59.8052 26.5861 60.1007 25.5405C60.3962 24.4721 60.544 23.1992 60.544 21.7218C60.544 18.8578 59.9871 16.7552 58.8733 15.4141C57.7822 14.073 56.157 13.4025 53.9976 13.4025C53.7021 13.4025 53.4066 13.4138 53.1111 13.4366C52.8384 13.4366 52.5883 13.4593 52.361 13.5048V29.9388ZM79.7738 29.9047V32.2914H67.1926V11.1863H69.9884V29.9047H79.7738ZM89.1501 30.2797C89.8547 30.2797 90.4798 30.257 91.0253 30.2116C91.5936 30.1661 92.0596 30.1093 92.4232 30.0411V25.3359C92.0596 25.2222 91.6163 25.1313 91.0935 25.0631C90.5935 24.9949 90.0593 24.9608 89.491 24.9608C88.9682 24.9608 88.4568 25.0063 87.9567 25.0972C87.4567 25.1654 87.0134 25.3018 86.627 25.5064C86.2406 25.711 85.9224 25.9837 85.6723 26.3247C85.4223 26.6429 85.2973 27.052 85.2973 27.5521C85.2973 28.575 85.6382 29.291 86.3201 29.7001C87.0248 30.0865 87.9681 30.2797 89.1501 30.2797ZM88.8773 16.096C90.0593 16.096 91.0481 16.2438 91.8436 16.5393C92.6619 16.8348 93.3211 17.2439 93.8212 17.7667C94.3212 18.2895 94.6735 18.9259 94.8781 19.676C95.0827 20.4261 95.185 21.2444 95.185 22.1309V32.0186C94.5258 32.1323 93.6507 32.2687 92.5596 32.4278C91.4913 32.5869 90.3889 32.6664 89.2524 32.6664C88.3886 32.6664 87.5476 32.5869 86.7293 32.4278C85.911 32.2914 85.1836 32.0413 84.5472 31.6777C83.9107 31.2912 83.3993 30.7684 83.0129 30.1093C82.6265 29.4501 82.4333 28.6091 82.4333 27.5862C82.4333 26.677 82.6265 25.9155 83.0129 25.3018C83.422 24.6654 83.9335 24.1539 84.5472 23.7675C85.1836 23.3811 85.8996 23.1083 86.6952 22.9492C87.5135 22.7674 88.3318 22.6765 89.1501 22.6765C90.2639 22.6765 91.3549 22.8015 92.4232 23.0515V22.2673C92.4232 21.79 92.3664 21.3354 92.2528 20.9035C92.1618 20.4489 91.9686 20.0397 91.6731 19.676C91.4004 19.3124 91.014 19.0282 90.5139 18.8237C90.0366 18.5964 89.4115 18.4827 88.6386 18.4827C87.6612 18.4827 86.8089 18.5509 86.0815 18.6873C85.3541 18.8237 84.7972 18.96 84.4108 19.0964L84.0698 16.7779C84.4563 16.5961 85.0927 16.437 85.9792 16.3006C86.8884 16.1642 87.8544 16.096 88.8773 16.096ZM102.072 17.0507C102.413 16.8461 102.902 16.6415 103.538 16.437C104.198 16.2097 104.925 16.096 105.72 16.096C106.789 16.096 107.743 16.3006 108.585 16.7097C109.426 17.1189 110.13 17.6871 110.698 18.4145C111.289 19.1419 111.733 20.017 112.028 21.0399C112.346 22.04 112.505 23.1538 112.505 24.3812C112.505 25.6541 112.324 26.802 111.96 27.8249C111.596 28.8477 111.085 29.7229 110.426 30.4502C109.766 31.1549 108.971 31.7004 108.039 32.0868C107.107 32.4732 106.073 32.6664 104.936 32.6664C103.686 32.6664 102.572 32.5755 101.595 32.3937C100.618 32.2118 99.8333 32.03 99.2423 31.8481V9.14054L102.072 8.6632V17.0507ZM102.072 29.8365C102.504 29.9502 102.936 30.0411 103.368 30.1093C103.8 30.1547 104.209 30.1775 104.595 30.1775C106.164 30.1775 107.391 29.7001 108.278 28.7455C109.164 27.768 109.607 26.3133 109.607 24.3812C109.607 23.5629 109.528 22.8015 109.369 22.0968C109.21 21.3695 108.96 20.7557 108.619 20.2557C108.278 19.7329 107.834 19.3237 107.289 19.0282C106.766 18.7327 106.13 18.585 105.38 18.585C104.72 18.585 104.084 18.7214 103.47 18.9941C102.856 19.2442 102.39 19.5169 102.072 19.8124V29.8365Z" fill="black"/>
<path d="M120.502 30.1093C120.502 30.7912 120.275 31.3935 119.82 31.9163C119.366 32.4391 118.763 32.7005 118.013 32.7005C117.24 32.7005 116.627 32.4391 116.172 31.9163C115.718 31.3935 115.49 30.7912 115.49 30.1093C115.49 29.4046 115.718 28.7909 116.172 28.2681C116.627 27.7453 117.24 27.4839 118.013 27.4839C118.763 27.4839 119.366 27.7453 119.82 28.2681C120.275 28.7909 120.502 29.4046 120.502 30.1093Z" fill="#2D86EB"/>
</svg>
